<?xml version="1.0" encoding="iso-8859-1"?>
<!-- Generator: Adobe Illustrator 18.0.0, SVG Export Plug-In . SVG Version: 6.00 Build 0)  -->
<!DOCTYPE svg PUBLIC "-//W3C//DTD SVG 1.1//EN" "http://www.w3.org/Graphics/SVG/1.1/DTD/svg11.dtd">
<svg version="1.1" id="Capa_1" xmlns="http://www.w3.org/2000/svg" xmlns:xlink="http://www.w3.org/1999/xlink" x="0px" y="0px"
	 viewBox="0 0 297 297" style="enable-background:new 0 0 297 297;" xml:space="preserve">
<g>
	<g>
		<g>
			<rect x="257.53" y="97.171" style="fill:#5B5869;" width="12" height="66"/>
		</g>
	</g>
	<g>
		<g>
			<rect x="93" y="97.171" style="fill:#5B5869;" width="12" height="66"/>
		</g>
	</g>
	<g>
		<g>
			<rect x="175.5" y="97.171" style="fill:#5B5869;" width="12" height="148.5"/>
		</g>
	</g>
	<g>
		<g>
			<rect x="27" y="97.171" style="fill:#5B5869;" width="12" height="148.5"/>
		</g>
	</g>
	<path style="fill:#C3A99A;" d="M280.5,65.92H170.374c5.034-5.368,8.126-12.578,8.126-20.5c0-16.542-13.458-30-30-30
		s-30,13.458-30,30c0,7.922,3.092,15.132,8.126,20.5H16.5C7.387,65.92,0,73.308,0,82.42c0,9.113,7.387,16.5,16.5,16.5h264
		c9.113,0,16.5-7.387,16.5-16.5C297,73.308,289.613,65.92,280.5,65.92z M148.5,27.421c9.925,0,18,8.075,18,18s-8.075,18-18,18
		s-18-8.075-18-18S138.575,27.421,148.5,27.421z"/>
	<g style="opacity:0.6;">
		<path style="fill:#BDC3C7;" d="M280.5,65.92h-2.836c1.79,2.638,2.836,5.822,2.836,9.25v0c0,9.113-7.387,16.5-16.5,16.5H2.836
			c2.967,4.375,7.979,7.25,13.664,7.25h264c9.113,0,16.5-7.387,16.5-16.5v0C297,73.308,289.613,65.92,280.5,65.92z"/>
	</g>
	<g>
		<g>
			<circle style="fill:#9ADAD9;" cx="99" cy="163.171" r="23.5"/>
		</g>
	</g>
	<g style="opacity:0.6;">
		<path style="fill:#BDC3C7;" d="M99,179.67c-11.789,0-21.549-8.682-23.239-20c-0.171,1.142-0.261,2.31-0.261,3.5
			c0,12.979,10.521,23.5,23.5,23.5s23.5-10.521,23.5-23.5c0-1.19-0.09-2.358-0.261-3.5C120.549,170.989,110.789,179.67,99,179.67z"
			/>
	</g>
	<g>
		<g>
			<circle style="fill:#BFF796;" cx="181.5" cy="146.671" r="16.5"/>
		</g>
	</g>
	<g>
		<g>
			<circle style="fill:#BFF796;" cx="33" cy="146.671" r="8.25"/>
		</g>
	</g>
	<g>
		<g>
			<g>
				<path style="fill:#F36E81;" d="M214.5,245.67c0-10-7.387-16.5-16.5-16.5s-16.5,7.387-16.5,16.5c0-9.113-7.387-16.5-16.5-16.5
					s-16.5,6-16.5,16.5c0,17,33,33,33,33S214.5,263.171,214.5,245.67z"/>
			</g>
		</g>
	</g>
	<g style="opacity:0.6;">
		<path style="fill:#BDC3C7;" d="M181.5,269.92c0,0-28.029-13.602-32.408-29.046c-0.375,1.477-0.592,3.069-0.592,4.796
			c0,17,33,33,33,33s33-15.5,33-33c0-1.659-0.221-3.211-0.601-4.664C209.49,256.762,181.5,269.92,181.5,269.92z"/>
	</g>
	<g>
		<g>
			<path style="fill:#BFF796;" d="M36.105,222.004l7.167,16.002c0.415,0.927,1.291,1.563,2.301,1.671l17.434,1.872
				c2.452,0.263,3.439,3.302,1.61,4.956l-13.004,11.762c-0.753,0.681-1.088,1.711-0.879,2.704l3.607,17.159
				c0.507,2.413-2.077,4.291-4.215,3.063l-15.204-8.733c-0.88-0.506-1.963-0.506-2.844,0l-15.204,8.733
				c-2.138,1.228-4.723-0.65-4.216-3.063l3.607-17.159c0.209-0.994-0.126-2.023-0.879-2.704L2.383,246.504
				c-1.829-1.654-0.842-4.692,1.61-4.956l17.434-1.872c1.01-0.108,1.886-0.745,2.301-1.671l7.167-16.002
				C31.903,219.753,35.097,219.753,36.105,222.004z"/>
		</g>
	</g>
	<g style="opacity:0.6;">
		<g>
			<path style="fill:#BDC3C7;" d="M16.266,253.325c0.209-0.994-0.126-2.023-0.879-2.705l-10.175-9.203l-1.219,0.131
				c-2.452,0.263-3.439,3.302-1.61,4.956l12.87,11.64L16.266,253.325z"/>
		</g>
		<g>
			<path style="fill:#BDC3C7;" d="M63.007,241.549l-1.219-0.131l-10.175,9.203c-0.753,0.681-1.088,1.711-0.879,2.705l1.013,4.819
				l12.87-11.64C66.446,244.85,65.459,241.812,63.007,241.549z"/>
		</g>
		<g>
			<path style="fill:#BDC3C7;" d="M53.326,273.298c-0.856,0.682-2.086,0.889-3.2,0.249l-15.204-8.733
				c-0.88-0.506-1.963-0.506-2.844,0l-15.204,8.733c-1.113,0.639-2.344,0.432-3.2-0.249l-1.016,4.832
				c-0.507,2.413,2.077,4.291,4.216,3.063l15.204-8.733c0.88-0.506,1.963-0.506,2.844,0l15.204,8.733
				c2.138,1.228,4.723-0.65,4.216-3.063L53.326,273.298z"/>
		</g>
	</g>
	<g>
		<g>
			<path style="fill:#9ADAD9;" d="M266.136,153.095l7.167,16.002c0.415,0.927,1.291,1.563,2.301,1.671l17.434,1.872
				c2.452,0.263,3.439,3.302,1.61,4.956l-13.004,11.762c-0.753,0.681-1.088,1.711-0.879,2.705l3.607,17.159
				c0.507,2.413-2.077,4.291-4.215,3.063l-15.204-8.733c-0.88-0.506-1.963-0.506-2.844,0l-15.204,8.733
				c-2.138,1.228-4.723-0.65-4.215-3.063l3.607-17.159c0.209-0.994-0.126-2.023-0.879-2.705l-13.004-11.762
				c-1.829-1.654-0.842-4.692,1.61-4.956l17.434-1.872c1.01-0.108,1.886-0.745,2.301-1.671l7.167-16.002
				C261.933,150.844,265.128,150.844,266.136,153.095z"/>
		</g>
	</g>
	<g style="opacity:0.6;">
		<g>
			<path style="fill:#BDC3C7;" d="M293.038,172.64l-1.859-0.2l-10.004,9.049c-0.753,0.681-1.088,1.711-0.879,2.705l1.138,5.412
				c0.072-0.082,0.129-0.174,0.211-0.248l13.004-11.762C296.477,175.942,295.489,172.903,293.038,172.64z"/>
		</g>
		<g>
			<path style="fill:#BDC3C7;" d="M245.826,184.194c0.209-0.994-0.126-2.023-0.879-2.705l-9.905-8.958l-1.02,0.109
				c-2.452,0.263-3.439,3.302-1.61,4.956l12.436,11.247L245.826,184.194z"/>
		</g>
		<g>
			<path style="fill:#BDC3C7;" d="M283.239,203.833c-0.841,0.936-2.274,1.317-3.552,0.583l-15.204-8.733
				c-0.88-0.506-1.963-0.506-2.844,0l-15.204,8.733c-0.928,0.533-1.94,0.48-2.747,0.053l-0.999,4.753
				c-0.507,2.413,2.077,4.291,4.216,3.063l15.204-8.733c0.88-0.506,1.963-0.506,2.844,0l15.204,8.733
				c2.138,1.228,4.723-0.65,4.216-3.063L283.239,203.833z"/>
		</g>
	</g>
</g>
<g>
</g>
<g>
</g>
<g>
</g>
<g>
</g>
<g>
</g>
<g>
</g>
<g>
</g>
<g>
</g>
<g>
</g>
<g>
</g>
<g>
</g>
<g>
</g>
<g>
</g>
<g>
</g>
<g>
</g>
</svg>
