<?xml version="1.0" encoding="iso-8859-1"?>
<!-- Generator: Adobe Illustrator 19.0.0, SVG Export Plug-In . SVG Version: 6.00 Build 0)  -->
<svg version="1.1" id="Layer_1" xmlns="http://www.w3.org/2000/svg" xmlns:xlink="http://www.w3.org/1999/xlink" x="0px" y="0px"
	 viewBox="0 0 488.92 488.92" style="enable-background:new 0 0 488.92 488.92;" xml:space="preserve">
<g transform="translate(0 -540.36)">
	<g>
		<g>
			<path d="M113.327,962.479c-2.5-4.9-8.5-6.9-13.4-4.4l-16.1,8.2v-20c0-5.5-4.5-10-10-10s-10,4.5-10,10v20l-16.1-8.2
				c-4.9-2.5-10.9-0.5-13.4,4.4s-0.5,10.9,4.4,13.4l13.1,6.7l-13.1,6.7c-4.9,2.5-6.9,8.5-4.4,13.4c1.8,3.5,5.3,5.5,8.9,5.5
				c1.5,0,3.1-0.4,4.5-1.1l16.1-8.2v20c0,5.5,4.5,10,10,10s10-4.5,10-10v-20l16.1,8.2c1.5,0.7,3,1.1,4.5,1.1c3.6,0,7.2-2,8.9-5.5
				c2.4-4.9,0.5-10.9-4.4-13.4v0l-13.1-6.7l13.1-6.7C113.827,973.379,115.827,967.379,113.327,962.479z"/>
			<path d="M222.527,936.979l-13.1-6.7l13.1-6.7c4.9-2.5,6.9-8.5,4.4-13.4s-8.5-6.9-13.4-4.4l-16.1,8.2v-20c0-5.5-4.5-10-10-10
				s-10,4.5-10,10v20l-16.1-8.2c-4.9-2.5-10.9-0.5-13.4,4.4s-0.5,10.9,4.4,13.4l13.1,6.7l-13.1,6.7c-4.9,2.5-6.9,8.5-4.4,13.4
				c1.8,3.5,5.3,5.5,8.9,5.5c1.5,0,3.1-0.4,4.5-1.1l16.1-8.2v20c0,5.5,4.5,10,10,10s10-4.5,10-10v-20l16.1,8.2
				c1.5,0.7,3,1.1,4.5,1.1c3.6,0,7.2-2,8.9-5.5C229.427,945.58,227.527,939.58,222.527,936.979z"/>
			<path d="M336.227,989.68L336.227,989.68l-13.1-6.7l13.1-6.7c4.9-2.5,6.9-8.5,4.4-13.4s-8.5-6.9-13.4-4.4l-16.1,8.2v-20
				c0-5.5-4.5-10-10-10s-10,4.5-10,10v20l-16.1-8.2c-4.9-2.5-10.9-0.5-13.4,4.4s-0.5,10.9,4.4,13.4l13.1,6.7l-13.1,6.7
				c-4.9,2.5-6.9,8.5-4.4,13.4c1.8,3.5,5.3,5.5,8.9,5.5c1.5,0,3.1-0.4,4.5-1.1l16.1-8.2v20c0,5.5,4.5,10,10,10s10-4.5,10-10v-20
				l16.1,8.2c1.5,0.7,3,1.1,4.5,1.1c3.6,0,7.2-2,8.9-5.5C343.127,998.18,341.227,992.18,336.227,989.68z"/>
			<path d="M449.927,937.479l-13.1-6.7l13.1-6.7c4.9-2.5,6.9-8.5,4.4-13.4s-8.5-6.9-13.4-4.4l-16.1,8.2v-20c0-5.5-4.5-10-10-10
				s-10,4.5-10,10v20l-16.1-8.2c-4.9-2.5-10.9-0.5-13.4,4.4s-0.5,10.9,4.4,13.4l13.1,6.7l-13.1,6.7c-4.9,2.5-6.9,8.5-4.4,13.4
				c1.8,3.5,5.3,5.5,8.9,5.5c1.5,0,3.1-0.4,4.5-1.1l16.1-8.2v20c0,5.5,4.5,10,10,10s10-4.5,10-10v-20l16.1,8.2
				c1.5,0.7,3,1.1,4.5,1.1c3.6,0,7.2-2,8.9-5.5C456.827,945.979,454.927,939.979,449.927,937.479z"/>
			<path d="M464.727,668.579c-2.3-3.1-6.2-4.7-10-3.9c-2.9,0.6-6.2,0.6-9.7,0.6c-40.3,0-73-33-73-73.5c0-12.8,3.2-25.1,9.6-36.5
				c1.9-3.3,1.7-7.4-0.5-10.6c-2.2-3.1-5.9-4.8-9.7-4.2c-22.2,3.4-42.6,14.6-57.2,31.5c-12.1,14-19.6,31.1-21.9,49.3
				c-13.3-4.9-27.7-7.6-42.8-7.6c-24,0-47.3,6.9-67.4,20.1c-17.5,11.4-31.8,27-41.7,45.5c-9.4-2.6-18.5-3.2-25.2-3.2
				c-24.8,0-48.2,9.6-65.7,27c-17.6,17.5-27.3,40.8-27.3,65.7c0,51.5,41.7,93.5,93,93.5h134.3c68.4,0,124.1-55.9,124.1-124.7
				c0-3.8-0.2-7.5-0.5-11.1c3.7,0.5,7.5,0.9,11.5,0.9c33.9,0,64.2-18,80.9-48C467.327,675.979,467.027,671.779,464.727,668.579z
				 M249.427,842.38L249.427,842.38l-134.3,0c-40.3,0-73-33-73-73.5c0-40.1,32.8-72.7,73-72.7c9.8,0,19.2,1.7,26.4,4.7
				c5,2.1,10.8-0.2,13-5.1c17-37.6,54.2-62,94.9-62c57.4,0,104.1,46.6,104.1,103.9C353.527,795.38,306.827,842.38,249.427,842.38z
				 M384.527,707.379L384.527,707.379c-5,0-10.3-0.8-15.2-1.8c-8.6-32-29.7-58.9-57.8-75.2c1-28.9,18.5-53.6,44.2-64.7
				c-2.4,8.4-3.7,17.2-3.7,26.1c0,48.7,37.3,88.9,84.8,93.1C423.327,699.279,404.727,707.379,384.527,707.379z"/>
		</g>
	</g>
</g>
<g>
</g>
<g>
</g>
<g>
</g>
<g>
</g>
<g>
</g>
<g>
</g>
<g>
</g>
<g>
</g>
<g>
</g>
<g>
</g>
<g>
</g>
<g>
</g>
<g>
</g>
<g>
</g>
<g>
</g>
</svg>
