<?xml version="1.0" encoding="iso-8859-1"?>
<!-- Generator: Adobe Illustrator 19.0.0, SVG Export Plug-In . SVG Version: 6.00 Build 0)  -->
<svg version="1.1" id="Layer_1" xmlns="http://www.w3.org/2000/svg" xmlns:xlink="http://www.w3.org/1999/xlink" x="0px" y="0px"
	 viewBox="0 0 502 502" style="enable-background:new 0 0 502 502;" xml:space="preserve">
<g>
	<g>
		<g>
			<path d="M410,0H92c-5.523,0-10,4.477-10,10v482c0,5.523,4.477,10,10,10h318c5.522,0,10-4.477,10-10V10C420,4.477,415.522,0,410,0
				z M400,482H102V20h298V482z"/>
			<path d="M251,460c70.579,0,128-57.42,128-128s-57.421-128-128-128c-70.58,0-128,57.42-128,128S180.42,460,251,460z M251,224
				c59.552,0,108,48.449,108,108c0,59.551-48.448,108-108,108c-59.551,0-108-48.449-108-108C143,272.449,191.449,224,251,224z"/>
			<path d="M251,182c38.047,0,69-30.953,69-69s-30.953-69-69-69s-69,30.953-69,69S212.953,182,251,182z M251,64
				c27.019,0,49,21.981,49,49s-21.981,49-49,49s-49-21.981-49-49S223.981,64,251,64z"/>
			<path d="M251,377c24.813,0,45-20.187,45-45s-20.187-45-45-45s-45,20.187-45,45S226.187,377,251,377z M251,307
				c13.785,0,25,11.215,25,25c0,13.785-11.215,25-25,25c-13.785,0-25-11.215-25-25C226,318.215,237.215,307,251,307z"/>
			<path d="M251,127c7.72,0,14-6.28,14-14c0-7.72-6.28-14-14-14c-7.72,0-14,6.28-14,14C237,120.72,243.28,127,251,127z"/>
			<path d="M224.998,262.104c1.024,0,2.067-0.159,3.094-0.493C235.46,259.215,243.168,258,251,258c5.522,0,10-4.477,10-10
				s-4.478-10-10-10c-9.936,0-19.724,1.545-29.093,4.591c-5.252,1.708-8.125,7.35-6.417,12.602
				C216.864,259.418,220.783,262.104,224.998,262.104z"/>
			<path d="M202.056,276.497c4.14-3.655,4.534-9.974,0.88-14.115c-3.655-4.141-9.974-4.535-14.115-0.88
				C168.598,279.351,157,305.046,157,332c0,5.523,4.477,10,10,10s10-4.477,10-10C177,310.781,186.132,290.551,202.056,276.497z"/>
		</g>
	</g>
</g>
<g>
</g>
<g>
</g>
<g>
</g>
<g>
</g>
<g>
</g>
<g>
</g>
<g>
</g>
<g>
</g>
<g>
</g>
<g>
</g>
<g>
</g>
<g>
</g>
<g>
</g>
<g>
</g>
<g>
</g>
</svg>
